<mxfile host="65bd71144e">
    <diagram id="unm-FFFXEerKT-9tM-QJ" name="Page-1">
        <mxGraphModel dx="8121" dy="1071" grid="1" gridSize="10" guides="1" tooltips="1" connect="1" arrows="1" fold="1" page="1" pageScale="1" pageWidth="850" pageHeight="1100" math="0" shadow="0">
            <root>
                <mxCell id="0"/>
                <mxCell id="1" parent="0"/>
                <mxCell id="1274" value="" style="group;movable=1;resizable=1;rotatable=1;deletable=1;editable=1;locked=0;connectable=1;shadow=0;strokeColor=default;fillColor=default;container=0;" parent="1" connectable="0" vertex="1">
                    <mxGeometry x="-5370" y="190" width="2970" height="2030" as="geometry"/>
                </mxCell>
                <mxCell id="1093" value="" style="group" parent="1" connectable="0" vertex="1">
                    <mxGeometry x="-5273" y="626" width="2795" height="1521.03" as="geometry"/>
                </mxCell>
                <mxCell id="1094" value="" style="group;movable=1;resizable=1;rotatable=1;deletable=1;editable=1;locked=0;connectable=1;shadow=0;strokeColor=default;fillColor=default;container=0;" parent="1093" connectable="0" vertex="1">
                    <mxGeometry y="91.40095123152709" width="2795" height="1429.6290487684728" as="geometry"/>
                </mxCell>
                <mxCell id="1095" value="&lt;font style=&quot;font-size: 30px;&quot;&gt;model&lt;/font&gt;" style="rounded=0;whiteSpace=wrap;html=1;" parent="1093" vertex="1">
                    <mxGeometry width="242.99710624224878" height="91.4009512315271" as="geometry"/>
                </mxCell>
                <mxCell id="1096" value="- uneCommune" style="text;html=1;align=center;verticalAlign=middle;resizable=0;points=[];autosize=1;strokeColor=none;fillColor=none;fontSize=15;" parent="1093" vertex="1">
                    <mxGeometry x="1304" y="538.4076541977292" width="121" height="30" as="geometry"/>
                </mxCell>
                <mxCell id="1097" value="- listeGare" style="text;html=1;align=center;verticalAlign=middle;resizable=0;points=[];autosize=1;fontSize=15;" parent="1093" vertex="1">
                    <mxGeometry x="1860" y="786.9978261083743" width="87" height="30" as="geometry"/>
                </mxCell>
                <mxCell id="1098" value="*" style="text;html=1;align=center;verticalAlign=middle;whiteSpace=wrap;rounded=0;fontSize=18;" parent="1093" vertex="1">
                    <mxGeometry x="1860" y="825.9998950738916" width="13" height="22.478275862068966" as="geometry"/>
                </mxCell>
                <mxCell id="1099" value="- listeAeroports" style="text;html=1;align=center;verticalAlign=middle;whiteSpace=wrap;rounded=0;fontSize=15;" parent="1093" vertex="1">
                    <mxGeometry x="2513" y="944.0019147783252" width="126" height="32.111822660098525" as="geometry"/>
                </mxCell>
                <mxCell id="1100" value="*" style="text;html=1;align=center;verticalAlign=middle;whiteSpace=wrap;rounded=0;" parent="1093" vertex="1">
                    <mxGeometry x="2497" y="1034.0328014778324" width="13" height="22.478275862068966" as="geometry"/>
                </mxCell>
                <mxCell id="1101" value="1" style="text;html=1;align=center;verticalAlign=middle;whiteSpace=wrap;rounded=0;" parent="1093" vertex="1">
                    <mxGeometry x="2450" y="859.9966931034484" width="13" height="22.478275862068966" as="geometry"/>
                </mxCell>
                <mxCell id="1102" value="- communeVoisine" style="text;html=1;align=center;verticalAlign=middle;resizable=0;points=[];autosize=1;fontSize=15;" parent="1093" vertex="1">
                    <mxGeometry x="1732" y="118.8458556650246" width="141" height="30" as="geometry"/>
                </mxCell>
                <mxCell id="1103" value="Commune" style="swimlane;fontStyle=2;align=center;verticalAlign=top;childLayout=stackLayout;horizontal=1;startSize=26;horizontalStack=0;resizeParent=1;resizeLast=0;collapsible=1;marginBottom=0;rounded=0;shadow=0;strokeWidth=1;swimlaneFillColor=default;strokeColor=default;fillColor=#1ba1e2;fontColor=#ffffff;fontSize=15;" parent="1093" vertex="1">
                    <mxGeometry x="1594" y="190.56225960591132" width="580" height="565.168078817734" as="geometry">
                        <mxRectangle x="230" y="140" width="160" height="26" as="alternateBounds"/>
                    </mxGeometry>
                </mxCell>
                <mxCell id="1104" value="- idCommune : int" style="text;align=left;verticalAlign=top;spacingLeft=4;spacingRight=4;overflow=hidden;rotatable=0;points=[[0,0.5],[1,0.5]];portConstraint=eastwest;fontSize=15;" parent="1103" vertex="1">
                    <mxGeometry y="26" width="580" height="27.83024630541872" as="geometry"/>
                </mxCell>
                <mxCell id="1105" value="- nomCommune : String" style="text;align=left;verticalAlign=top;spacingLeft=4;spacingRight=4;overflow=hidden;rotatable=0;points=[[0,0.5],[1,0.5]];portConstraint=eastwest;rounded=0;shadow=0;html=0;fontSize=15;" parent="1103" vertex="1">
                    <mxGeometry y="53.83024630541872" width="580" height="27.83024630541872" as="geometry"/>
                </mxCell>
                <mxCell id="1106" value="" style="line;html=1;strokeWidth=1;align=left;verticalAlign=middle;spacingTop=-1;spacingLeft=3;spacingRight=3;rotatable=0;labelPosition=right;points=[];portConstraint=eastwest;" parent="1103" vertex="1">
                    <mxGeometry y="81.66049261083744" width="580" height="8.563152709359606" as="geometry"/>
                </mxCell>
                <mxCell id="1107" value="+ Commune(idCommune : int, nomCommune : String, leDepartement : Departement)&#10;" style="text;align=left;verticalAlign=top;spacingLeft=4;spacingRight=4;overflow=hidden;rotatable=0;points=[[0,0.5],[1,0.5]];portConstraint=eastwest;fontSize=15;" parent="1103" vertex="1">
                    <mxGeometry y="90.22364532019705" width="580" height="27.83024630541872" as="geometry"/>
                </mxCell>
                <mxCell id="1108" value="+ addCommuneVoisine(commune : Commune) : void&#10;" style="text;align=left;verticalAlign=top;spacingLeft=4;spacingRight=4;overflow=hidden;rotatable=0;points=[[0,0.5],[1,0.5]];portConstraint=eastwest;fontSize=15;" parent="1103" vertex="1">
                    <mxGeometry y="118.05389162561576" width="580" height="27.83024630541872" as="geometry"/>
                </mxCell>
                <mxCell id="1109" value="+ removeCommuneVoisine(commune : Commune) : void" style="text;align=left;verticalAlign=top;spacingLeft=4;spacingRight=4;overflow=hidden;rotatable=0;points=[[0,0.5],[1,0.5]];portConstraint=eastwest;fontSize=15;" parent="1103" vertex="1">
                    <mxGeometry y="145.88413793103447" width="580" height="27.83024630541872" as="geometry"/>
                </mxCell>
                <mxCell id="1110" value="+ getIdCommune() : int&#10;" style="text;align=left;verticalAlign=top;spacingLeft=4;spacingRight=4;overflow=hidden;rotatable=0;points=[[0,0.5],[1,0.5]];portConstraint=eastwest;fontSize=15;" parent="1103" vertex="1">
                    <mxGeometry y="173.71438423645318" width="580" height="27.83024630541872" as="geometry"/>
                </mxCell>
                <mxCell id="1111" value="+ setIdCommune(idCommune : int) : void&#10;" style="text;align=left;verticalAlign=top;spacingLeft=4;spacingRight=4;overflow=hidden;rotatable=0;points=[[0,0.5],[1,0.5]];portConstraint=eastwest;fontSize=15;" parent="1103" vertex="1">
                    <mxGeometry y="201.5446305418719" width="580" height="27.83024630541872" as="geometry"/>
                </mxCell>
                <mxCell id="1112" value="+ getNomCommune() : String " style="text;align=left;verticalAlign=top;spacingLeft=4;spacingRight=4;overflow=hidden;rotatable=0;points=[[0,0.5],[1,0.5]];portConstraint=eastwest;fontSize=15;" parent="1103" vertex="1">
                    <mxGeometry y="229.3748768472906" width="580" height="27.83024630541872" as="geometry"/>
                </mxCell>
                <mxCell id="1113" value="+ setNomCommune(nomCommune : String) : void " style="text;align=left;verticalAlign=top;spacingLeft=4;spacingRight=4;overflow=hidden;rotatable=0;points=[[0,0.5],[1,0.5]];portConstraint=eastwest;fontSize=15;" parent="1103" vertex="1">
                    <mxGeometry y="257.20512315270935" width="580" height="27.83024630541872" as="geometry"/>
                </mxCell>
                <mxCell id="1114" value="+ getLeDepartement() : Departement " style="text;align=left;verticalAlign=top;spacingLeft=4;spacingRight=4;overflow=hidden;rotatable=0;points=[[0,0.5],[1,0.5]];portConstraint=eastwest;fontSize=15;" parent="1103" vertex="1">
                    <mxGeometry y="285.03536945812806" width="580" height="27.83024630541872" as="geometry"/>
                </mxCell>
                <mxCell id="1115" value="+ setLeDepartement(leDepartement : Departement) : void&#10;&#10;&#10;" style="text;align=left;verticalAlign=top;spacingLeft=4;spacingRight=4;overflow=hidden;rotatable=0;points=[[0,0.5],[1,0.5]];portConstraint=eastwest;fontSize=15;" parent="1103" vertex="1">
                    <mxGeometry y="312.86561576354677" width="580" height="27.83024630541872" as="geometry"/>
                </mxCell>
                <mxCell id="1116" value="+ getCommuneVoisine() : ArrayList&lt;Commune&gt; " style="text;align=left;verticalAlign=top;spacingLeft=4;spacingRight=4;overflow=hidden;rotatable=0;points=[[0,0.5],[1,0.5]];portConstraint=eastwest;fontSize=15;" parent="1103" vertex="1">
                    <mxGeometry y="340.6958620689655" width="580" height="27.83024630541872" as="geometry"/>
                </mxCell>
                <mxCell id="1117" value="+ setCommuneVoisine(communeVoisine : ArrayList&lt;Commune&gt;) : void " style="text;align=left;verticalAlign=top;spacingLeft=4;spacingRight=4;overflow=hidden;rotatable=0;points=[[0,0.5],[1,0.5]];portConstraint=eastwest;fontSize=15;" parent="1103" vertex="1">
                    <mxGeometry y="368.5261083743842" width="580" height="27.83024630541872" as="geometry"/>
                </mxCell>
                <mxCell id="1118" value="+ getListeGares() : ArrayList&lt;Gare&gt;" style="text;align=left;verticalAlign=top;spacingLeft=4;spacingRight=4;overflow=hidden;rotatable=0;points=[[0,0.5],[1,0.5]];portConstraint=eastwest;fontSize=15;" parent="1103" vertex="1">
                    <mxGeometry y="396.3563546798029" width="580" height="27.83024630541872" as="geometry"/>
                </mxCell>
                <mxCell id="1119" value="+ setListeGares(listeGares : ArrayList&lt;Gare&gt;) : void" style="text;align=left;verticalAlign=top;spacingLeft=4;spacingRight=4;overflow=hidden;rotatable=0;points=[[0,0.5],[1,0.5]];portConstraint=eastwest;fontSize=15;" parent="1103" vertex="1">
                    <mxGeometry y="424.1866009852216" width="580" height="27.83024630541872" as="geometry"/>
                </mxCell>
                <mxCell id="1120" value="+ addGare(gare : Gare) : void" style="text;align=left;verticalAlign=top;spacingLeft=4;spacingRight=4;overflow=hidden;rotatable=0;points=[[0,0.5],[1,0.5]];portConstraint=eastwest;fontSize=15;" parent="1103" vertex="1">
                    <mxGeometry y="452.0168472906403" width="580" height="27.83024630541872" as="geometry"/>
                </mxCell>
                <mxCell id="1121" value="+ removeGare(gare : Gare) : void" style="text;align=left;verticalAlign=top;spacingLeft=4;spacingRight=4;overflow=hidden;rotatable=0;points=[[0,0.5],[1,0.5]];portConstraint=eastwest;fontSize=15;" parent="1103" vertex="1">
                    <mxGeometry y="479.84709359605904" width="580" height="27.83024630541872" as="geometry"/>
                </mxCell>
                <mxCell id="1122" value="+ toString() : String&#10;&#10;&#10;" style="text;align=left;verticalAlign=top;spacingLeft=4;spacingRight=4;overflow=hidden;rotatable=0;points=[[0,0.5],[1,0.5]];portConstraint=eastwest;fontSize=15;" parent="1103" vertex="1">
                    <mxGeometry y="507.67733990147775" width="580" height="27.83024630541872" as="geometry"/>
                </mxCell>
                <mxCell id="1123" value="+ communeMaxCommuneVoisine(communeVoisines : Commune[]) : Commune" style="text;align=left;verticalAlign=top;spacingLeft=4;spacingRight=4;overflow=hidden;rotatable=0;points=[[0,0.5],[1,0.5]];portConstraint=eastwest;fontSize=15;" parent="1103" vertex="1">
                    <mxGeometry y="535.5075862068965" width="580" height="27.83024630541872" as="geometry"/>
                </mxCell>
                <mxCell id="1124" style="edgeStyle=none;html=1;endArrow=open;endFill=0;entryX=0.25;entryY=0;entryDx=0;entryDy=0;" parent="1093" source="1103" target="1103" edge="1">
                    <mxGeometry relative="1" as="geometry">
                        <Array as="points">
                            <mxPoint x="1864" y="150.95767832512314"/>
                            <mxPoint x="1743" y="150.95767832512314"/>
                        </Array>
                        <mxPoint x="1864.04" y="202.53354709359624" as="sourcePoint"/>
                        <mxPoint x="1743.3999999999996" y="207.97971221674868" as="targetPoint"/>
                    </mxGeometry>
                </mxCell>
                <mxCell id="1125" value="*" style="text;html=1;align=center;verticalAlign=middle;whiteSpace=wrap;rounded=0;fontSize=18;" parent="1093" vertex="1">
                    <mxGeometry x="2517" y="1011.5566931034484" width="13" height="22.478275862068966" as="geometry"/>
                </mxCell>
                <mxCell id="1126" value="- leDepartement" style="text;html=1;align=center;verticalAlign=middle;whiteSpace=wrap;rounded=0;fontSize=15;" parent="1093" vertex="1">
                    <mxGeometry x="2324" y="944.0019147783253" width="126" height="32.111822660098525" as="geometry"/>
                </mxCell>
                <mxCell id="1127" value="1" style="text;html=1;align=center;verticalAlign=middle;whiteSpace=wrap;rounded=0;" parent="1093" vertex="1">
                    <mxGeometry x="2428" y="520.9966931034483" width="13" height="22.478275862068966" as="geometry"/>
                </mxCell>
                <mxCell id="1128" value="1" style="text;html=1;align=center;verticalAlign=middle;whiteSpace=wrap;rounded=0;" parent="1093" vertex="1">
                    <mxGeometry x="1569" y="450.99669310344825" width="13" height="22.478275862068966" as="geometry"/>
                </mxCell>
                <mxCell id="1129" value="1" style="text;html=1;align=center;verticalAlign=middle;whiteSpace=wrap;rounded=0;" parent="1093" vertex="1">
                    <mxGeometry x="855" y="450.99669310344825" width="13" height="22.478275862068966" as="geometry"/>
                </mxCell>
                <mxCell id="1130" value="1" style="text;html=1;align=center;verticalAlign=middle;whiteSpace=wrap;rounded=0;" parent="1093" vertex="1">
                    <mxGeometry x="1765" y="758.9966931034483" width="13" height="22.478275862068966" as="geometry"/>
                </mxCell>
                <mxCell id="1131" value="- laCommune" style="text;html=1;align=center;verticalAlign=middle;whiteSpace=wrap;rounded=0;fontSize=15;" parent="1093" vertex="1">
                    <mxGeometry x="1671" y="781.4719147783253" width="126" height="32.111822660098525" as="geometry"/>
                </mxCell>
                <mxCell id="1132" value="" style="endArrow=none;shadow=0;strokeWidth=1;rounded=0;curved=0;endFill=0;edgeStyle=elbowEdgeStyle;elbow=vertical;startArrow=open;startFill=0;" parent="1093" edge="1">
                    <mxGeometry x="0.5" y="41" relative="1" as="geometry">
                        <mxPoint x="1794" y="755.7303384236454" as="sourcePoint"/>
                        <mxPoint x="1794" y="850.9700000000003" as="targetPoint"/>
                        <mxPoint x="-40" y="32" as="offset"/>
                        <Array as="points">
                            <mxPoint x="1668" y="937.7"/>
                        </Array>
                    </mxGeometry>
                </mxCell>
                <mxCell id="1133" value="Departement" style="swimlane;fontStyle=2;align=center;verticalAlign=top;childLayout=stackLayout;horizontal=1;startSize=26;horizontalStack=0;resizeParent=1;resizeLast=0;collapsible=1;marginBottom=0;rounded=0;shadow=0;strokeWidth=1;swimlaneFillColor=default;strokeColor=default;fillColor=#1ba1e2;fontColor=#ffffff;fontSize=15;" parent="1093" vertex="1">
                    <mxGeometry x="2255" y="397" width="445" height="455" as="geometry">
                        <mxRectangle x="550" y="140" width="160" height="26" as="alternateBounds"/>
                    </mxGeometry>
                </mxCell>
                <mxCell id="1134" value="- idDep : int" style="text;align=left;verticalAlign=top;spacingLeft=4;spacingRight=4;overflow=hidden;rotatable=0;points=[[0,0.5],[1,0.5]];portConstraint=eastwest;fontSize=15;" parent="1133" vertex="1">
                    <mxGeometry y="26" width="445" height="26" as="geometry"/>
                </mxCell>
                <mxCell id="1135" value="- nomDep : String" style="text;align=left;verticalAlign=top;spacingLeft=4;spacingRight=4;overflow=hidden;rotatable=0;points=[[0,0.5],[1,0.5]];portConstraint=eastwest;rounded=0;shadow=0;html=0;fontSize=15;" parent="1133" vertex="1">
                    <mxGeometry y="52" width="445" height="26" as="geometry"/>
                </mxCell>
                <mxCell id="1136" value="- invesCulturel2019 : float" style="text;align=left;verticalAlign=top;spacingLeft=4;spacingRight=4;overflow=hidden;rotatable=0;points=[[0,0.5],[1,0.5]];portConstraint=eastwest;rounded=0;shadow=0;html=0;fontSize=15;" parent="1133" vertex="1">
                    <mxGeometry y="78" width="445" height="26" as="geometry"/>
                </mxCell>
                <mxCell id="1137" value="" style="line;strokeWidth=1;align=left;verticalAlign=middle;spacingTop=-1;spacingLeft=3;spacingRight=3;rotatable=0;labelPosition=right;points=[];portConstraint=eastwest;" parent="1133" vertex="1">
                    <mxGeometry y="104" width="445" height="8" as="geometry"/>
                </mxCell>
                <mxCell id="1138" value="+ Departement(idDep : int, nomDep : String, inves : float)&#10;" style="text;align=left;verticalAlign=top;spacingLeft=4;spacingRight=4;overflow=hidden;rotatable=0;points=[[0,0.5],[1,0.5]];portConstraint=eastwest;rounded=0;shadow=0;html=0;fontSize=15;" parent="1133" vertex="1">
                    <mxGeometry y="112" width="445" height="26" as="geometry"/>
                </mxCell>
                <mxCell id="1139" value="+ getIdDep() : int" style="text;align=left;verticalAlign=top;spacingLeft=4;spacingRight=4;overflow=hidden;rotatable=0;points=[[0,0.5],[1,0.5]];portConstraint=eastwest;rounded=0;shadow=0;html=0;fontSize=15;" parent="1133" vertex="1">
                    <mxGeometry y="138" width="445" height="26" as="geometry"/>
                </mxCell>
                <mxCell id="1140" value="+ setIdDep(idDep : int) : void&#10;" style="text;align=left;verticalAlign=top;spacingLeft=4;spacingRight=4;overflow=hidden;rotatable=0;points=[[0,0.5],[1,0.5]];portConstraint=eastwest;rounded=0;shadow=0;html=0;fontSize=15;" parent="1133" vertex="1">
                    <mxGeometry y="164" width="445" height="26" as="geometry"/>
                </mxCell>
                <mxCell id="1141" value="+ getNomDep() : String" style="text;align=left;verticalAlign=top;spacingLeft=4;spacingRight=4;overflow=hidden;rotatable=0;points=[[0,0.5],[1,0.5]];portConstraint=eastwest;rounded=0;shadow=0;html=0;fontSize=15;" parent="1133" vertex="1">
                    <mxGeometry y="190" width="445" height="26" as="geometry"/>
                </mxCell>
                <mxCell id="1142" value="+ setNomDep(nomDep : String) : void&#10;" style="text;align=left;verticalAlign=top;spacingLeft=4;spacingRight=4;overflow=hidden;rotatable=0;points=[[0,0.5],[1,0.5]];portConstraint=eastwest;rounded=0;shadow=0;html=0;fontSize=15;" parent="1133" vertex="1">
                    <mxGeometry y="216" width="445" height="26" as="geometry"/>
                </mxCell>
                <mxCell id="1143" value="+ getInvesCulturel2019() : float" style="text;align=left;verticalAlign=top;spacingLeft=4;spacingRight=4;overflow=hidden;rotatable=0;points=[[0,0.5],[1,0.5]];portConstraint=eastwest;rounded=0;shadow=0;html=0;fontSize=15;" parent="1133" vertex="1">
                    <mxGeometry y="242" width="445" height="26" as="geometry"/>
                </mxCell>
                <mxCell id="1144" value="+ setInvesCulturel2019(invesCulturel2019 : float) : void " style="text;align=left;verticalAlign=top;spacingLeft=4;spacingRight=4;overflow=hidden;rotatable=0;points=[[0,0.5],[1,0.5]];portConstraint=eastwest;rounded=0;shadow=0;html=0;fontSize=15;" parent="1133" vertex="1">
                    <mxGeometry y="268" width="445" height="26" as="geometry"/>
                </mxCell>
                <mxCell id="1145" value="+ getListeAeroports() : ArrayList&lt;Aeroport&gt;" style="text;align=left;verticalAlign=top;spacingLeft=4;spacingRight=4;overflow=hidden;rotatable=0;points=[[0,0.5],[1,0.5]];portConstraint=eastwest;rounded=0;shadow=0;html=0;fontSize=15;" parent="1133" vertex="1">
                    <mxGeometry y="294" width="445" height="26" as="geometry"/>
                </mxCell>
                <mxCell id="1146" value="+ setListeAeroports(listeAeroports : ArrayList&lt;Aeroport&gt;) : void" style="text;align=left;verticalAlign=top;spacingLeft=4;spacingRight=4;overflow=hidden;rotatable=0;points=[[0,0.5],[1,0.5]];portConstraint=eastwest;rounded=0;shadow=0;html=0;fontSize=15;" parent="1133" vertex="1">
                    <mxGeometry y="320" width="445" height="26" as="geometry"/>
                </mxCell>
                <mxCell id="1147" value="+ addAeroport(aeroport : Aeroport) : void" style="text;align=left;verticalAlign=top;spacingLeft=4;spacingRight=4;overflow=hidden;rotatable=0;points=[[0,0.5],[1,0.5]];portConstraint=eastwest;rounded=0;shadow=0;html=0;fontSize=15;" parent="1133" vertex="1">
                    <mxGeometry y="346" width="445" height="26" as="geometry"/>
                </mxCell>
                <mxCell id="1148" value="+ removeAeroport(aeroport : Aeroport)" style="text;align=left;verticalAlign=top;spacingLeft=4;spacingRight=4;overflow=hidden;rotatable=0;points=[[0,0.5],[1,0.5]];portConstraint=eastwest;rounded=0;shadow=0;html=0;fontSize=15;" parent="1133" vertex="1">
                    <mxGeometry y="372" width="445" height="26" as="geometry"/>
                </mxCell>
                <mxCell id="1149" value="+ toString() : String" style="text;align=left;verticalAlign=top;spacingLeft=4;spacingRight=4;overflow=hidden;rotatable=0;points=[[0,0.5],[1,0.5]];portConstraint=eastwest;rounded=0;shadow=0;html=0;fontSize=15;" parent="1133" vertex="1">
                    <mxGeometry y="398" width="445" height="26" as="geometry"/>
                </mxCell>
                <mxCell id="1150" value="+ rechercheAeroport(nomAeroport : String) : ArrayList&lt;Aeroport&gt;" style="text;align=left;verticalAlign=top;spacingLeft=4;spacingRight=4;overflow=hidden;rotatable=0;points=[[0,0.5],[1,0.5]];portConstraint=eastwest;rounded=0;shadow=0;html=0;fontSize=15;" parent="1133" vertex="1">
                    <mxGeometry y="424" width="445" height="26" as="geometry"/>
                </mxCell>
                <mxCell id="1151" value="" style="endArrow=open;shadow=0;strokeWidth=1;rounded=0;curved=0;endFill=1;edgeStyle=elbowEdgeStyle;elbow=vertical;" parent="1093" source="1103" target="1133" edge="1">
                    <mxGeometry x="0.5" y="41" relative="1" as="geometry">
                        <mxPoint x="2084" y="567.97" as="sourcePoint"/>
                        <mxPoint x="2244" y="567.97" as="targetPoint"/>
                        <mxPoint x="-40" y="32" as="offset"/>
                        <Array as="points">
                            <mxPoint x="2148" y="349.97"/>
                        </Array>
                    </mxGeometry>
                </mxCell>
                <mxCell id="1271" value="1" style="text;html=1;align=center;verticalAlign=middle;whiteSpace=wrap;rounded=0;" parent="1093" vertex="1">
                    <mxGeometry x="2455" y="370.99669310344825" width="13" height="22.478275862068966" as="geometry"/>
                </mxCell>
                <mxCell id="1272" value="*" style="text;html=1;align=center;verticalAlign=middle;whiteSpace=wrap;rounded=0;fontSize=18;" parent="1093" vertex="1">
                    <mxGeometry x="1719" y="168.0798950738916" width="13" height="22.478275862068966" as="geometry"/>
                </mxCell>
                <mxCell id="1152" style="edgeStyle=orthogonalEdgeStyle;rounded=0;orthogonalLoop=1;jettySize=auto;html=1;endArrow=open;endFill=0;" parent="1" source="1154" target="1191" edge="1">
                    <mxGeometry relative="1" as="geometry">
                        <mxPoint x="-4377.333333333334" y="1213.97" as="sourcePoint"/>
                        <mxPoint x="-4427.42" y="1068.977860962567" as="targetPoint"/>
                    </mxGeometry>
                </mxCell>
                <mxCell id="1153" value="" style="group;fontSize=14;" parent="1" connectable="0" vertex="1">
                    <mxGeometry x="-5233" y="1219.97" width="1445" height="875" as="geometry"/>
                </mxCell>
                <mxCell id="1154" value="&lt;span style=&quot;font-weight: 400; font-size: 15px;&quot;&gt;AnneeCommune&lt;/span&gt;" style="swimlane;fontStyle=1;align=center;verticalAlign=top;childLayout=stackLayout;horizontal=1;startSize=26;horizontalStack=0;resizeParent=1;resizeParentMax=0;resizeLast=0;collapsible=1;marginBottom=0;whiteSpace=wrap;html=1;swimlaneFillColor=default;strokeColor=default;fillColor=#1ba1e2;fontColor=#ffffff;container=0;fontSize=15;" parent="1153" vertex="1">
                    <mxGeometry width="1425" height="867.8302463054188" as="geometry">
                        <mxRectangle x="30" y="520" width="70" height="30" as="alternateBounds"/>
                    </mxGeometry>
                </mxCell>
                <mxCell id="1155" value="- population : float" style="text;align=left;verticalAlign=top;spacingLeft=4;spacingRight=4;overflow=hidden;rotatable=0;points=[[0,0.5],[1,0.5]];portConstraint=eastwest;rounded=0;shadow=0;html=0;container=0;fontSize=15;" parent="1154" vertex="1">
                    <mxGeometry y="26" width="1425" height="26" as="geometry"/>
                </mxCell>
                <mxCell id="1156" value="- budgetTotal : float" style="text;align=left;verticalAlign=top;spacingLeft=4;spacingRight=4;overflow=hidden;rotatable=0;points=[[0,0.5],[1,0.5]];portConstraint=eastwest;rounded=0;shadow=0;html=0;container=0;fontSize=15;" parent="1154" vertex="1">
                    <mxGeometry y="52" width="1425" height="26" as="geometry"/>
                </mxCell>
                <mxCell id="1157" value="- nbMaison : int" style="text;align=left;verticalAlign=top;spacingLeft=4;spacingRight=4;overflow=hidden;rotatable=0;points=[[0,0.5],[1,0.5]];portConstraint=eastwest;container=0;fontSize=15;" parent="1154" vertex="1">
                    <mxGeometry y="78" width="1425" height="26" as="geometry"/>
                </mxCell>
                <mxCell id="1158" value="- depCulturellesTotales : float" style="text;align=left;verticalAlign=top;spacingLeft=4;spacingRight=4;overflow=hidden;rotatable=0;points=[[0,0.5],[1,0.5]];portConstraint=eastwest;rounded=0;shadow=0;html=0;container=0;fontSize=15;" parent="1154" vertex="1">
                    <mxGeometry y="104" width="1425" height="26" as="geometry"/>
                </mxCell>
                <mxCell id="1159" value="- surfaceMoy : float" style="text;align=left;verticalAlign=top;spacingLeft=4;spacingRight=4;overflow=hidden;rotatable=0;points=[[0,0.5],[1,0.5]];portConstraint=eastwest;rounded=0;shadow=0;html=0;container=0;fontSize=15;" parent="1154" vertex="1">
                    <mxGeometry y="130" width="1425" height="26" as="geometry"/>
                </mxCell>
                <mxCell id="1160" value="- prixMoyen : float" style="text;align=left;verticalAlign=top;spacingLeft=4;spacingRight=4;overflow=hidden;rotatable=0;points=[[0,0.5],[1,0.5]];portConstraint=eastwest;rounded=0;shadow=0;html=0;container=0;fontSize=15;" parent="1154" vertex="1">
                    <mxGeometry y="156" width="1425" height="26" as="geometry"/>
                </mxCell>
                <mxCell id="1161" value="- prixM2Moyen : float" style="text;align=left;verticalAlign=top;spacingLeft=4;spacingRight=4;overflow=hidden;rotatable=0;points=[[0,0.5],[1,0.5]];portConstraint=eastwest;rounded=0;shadow=0;html=0;container=0;fontSize=15;" parent="1154" vertex="1">
                    <mxGeometry y="182" width="1425" height="26" as="geometry"/>
                </mxCell>
                <mxCell id="1162" value="- nbAppart : int" style="text;align=left;verticalAlign=top;spacingLeft=4;spacingRight=4;overflow=hidden;rotatable=0;points=[[0,0.5],[1,0.5]];portConstraint=eastwest;rounded=0;shadow=0;html=0;container=0;fontSize=15;" parent="1154" vertex="1">
                    <mxGeometry y="208" width="1425" height="26" as="geometry"/>
                </mxCell>
                <mxCell id="1163" value="" style="line;strokeWidth=1;align=left;verticalAlign=middle;spacingTop=-1;spacingLeft=3;spacingRight=3;rotatable=0;labelPosition=right;points=[];portConstraint=eastwest;container=0;" parent="1154" vertex="1">
                    <mxGeometry y="234" width="1425" height="8" as="geometry"/>
                </mxCell>
                <mxCell id="1164" value="&lt;div style=&quot;font-size: 15px;&quot;&gt;+&amp;nbsp;&lt;span style=&quot;background-color: initial; font-size: 15px;&quot;&gt;AnneeCommune(annee : Annee, laCommune : Commune, nbMaison : int, nbAppart : int, prixMoyen : float, prixM2Moyen : float, surfaceMoy : float, depCulturellesTotal : float, budgetTotal : float, population : float)&lt;/span&gt;&lt;/div&gt;&lt;div style=&quot;font-size: 15px;&quot;&gt;&lt;span style=&quot;background-color: initial; font-size: 15px;&quot;&gt;&lt;br style=&quot;font-size: 15px;&quot;&gt;&lt;/span&gt;&lt;/div&gt;" style="text;align=left;verticalAlign=top;spacingLeft=4;spacingRight=4;overflow=hidden;rotatable=0;points=[[0,0.5],[1,0.5]];portConstraint=eastwest;whiteSpace=wrap;html=1;container=0;fontSize=15;" parent="1154" vertex="1">
                    <mxGeometry y="242" width="1425" height="26" as="geometry"/>
                </mxCell>
                <mxCell id="1165" value="+ getAnnee() : Annee&lt;div style=&quot;font-size: 15px;&quot;&gt;&lt;br style=&quot;font-size: 15px;&quot;&gt;&lt;/div&gt;" style="text;align=left;verticalAlign=top;spacingLeft=4;spacingRight=4;overflow=hidden;rotatable=0;points=[[0,0.5],[1,0.5]];portConstraint=eastwest;whiteSpace=wrap;html=1;container=0;fontSize=15;" parent="1154" vertex="1">
                    <mxGeometry y="268" width="1425" height="26" as="geometry"/>
                </mxCell>
                <mxCell id="1166" value="+ setAnnee(annee : Annee) : void&amp;nbsp;" style="text;align=left;verticalAlign=top;spacingLeft=4;spacingRight=4;overflow=hidden;rotatable=0;points=[[0,0.5],[1,0.5]];portConstraint=eastwest;whiteSpace=wrap;html=1;container=0;fontSize=15;" parent="1154" vertex="1">
                    <mxGeometry y="294" width="1425" height="26" as="geometry"/>
                </mxCell>
                <mxCell id="1167" value="+ getLaCommune() : Commune&amp;nbsp;" style="text;align=left;verticalAlign=top;spacingLeft=4;spacingRight=4;overflow=hidden;rotatable=0;points=[[0,0.5],[1,0.5]];portConstraint=eastwest;whiteSpace=wrap;html=1;container=0;fontSize=15;" parent="1154" vertex="1">
                    <mxGeometry y="320" width="1425" height="26" as="geometry"/>
                </mxCell>
                <mxCell id="1168" value="+ setLaCommune(laCommune : Commune) : void&amp;nbsp;" style="text;align=left;verticalAlign=top;spacingLeft=4;spacingRight=4;overflow=hidden;rotatable=0;points=[[0,0.5],[1,0.5]];portConstraint=eastwest;whiteSpace=wrap;html=1;container=0;fontSize=15;" parent="1154" vertex="1">
                    <mxGeometry y="346" width="1425" height="26" as="geometry"/>
                </mxCell>
                <mxCell id="1169" value="+ getNbMaison() : int&amp;nbsp;" style="text;align=left;verticalAlign=top;spacingLeft=4;spacingRight=4;overflow=hidden;rotatable=0;points=[[0,0.5],[1,0.5]];portConstraint=eastwest;whiteSpace=wrap;html=1;container=0;fontSize=15;" parent="1154" vertex="1">
                    <mxGeometry y="372" width="1425" height="26" as="geometry"/>
                </mxCell>
                <mxCell id="1170" value="+ setNbMaison(nbMaison : int) : void&amp;nbsp;" style="text;align=left;verticalAlign=top;spacingLeft=4;spacingRight=4;overflow=hidden;rotatable=0;points=[[0,0.5],[1,0.5]];portConstraint=eastwest;whiteSpace=wrap;html=1;container=0;fontSize=15;" parent="1154" vertex="1">
                    <mxGeometry y="398" width="1425" height="26" as="geometry"/>
                </mxCell>
                <mxCell id="1171" value="+ getNbAppart() : int&lt;br style=&quot;font-size: 15px;&quot;&gt;&lt;div style=&quot;font-size: 15px;&quot;&gt;&lt;br style=&quot;font-size: 15px;&quot;&gt;&lt;/div&gt;" style="text;align=left;verticalAlign=top;spacingLeft=4;spacingRight=4;overflow=hidden;rotatable=0;points=[[0,0.5],[1,0.5]];portConstraint=eastwest;whiteSpace=wrap;html=1;container=0;fontSize=15;" parent="1154" vertex="1">
                    <mxGeometry y="424" width="1425" height="26" as="geometry"/>
                </mxCell>
                <mxCell id="1172" value="+ setNbAppart(nbAppart : int) : void&amp;nbsp;" style="text;align=left;verticalAlign=top;spacingLeft=4;spacingRight=4;overflow=hidden;rotatable=0;points=[[0,0.5],[1,0.5]];portConstraint=eastwest;whiteSpace=wrap;html=1;container=0;fontSize=15;" parent="1154" vertex="1">
                    <mxGeometry y="450" width="1425" height="26" as="geometry"/>
                </mxCell>
                <mxCell id="1173" value="+ toString() : String" style="text;align=left;verticalAlign=top;spacingLeft=4;spacingRight=4;overflow=hidden;rotatable=0;points=[[0,0.5],[1,0.5]];portConstraint=eastwest;whiteSpace=wrap;html=1;container=0;fontSize=15;" parent="1154" vertex="1">
                    <mxGeometry y="476" width="1425" height="26" as="geometry"/>
                </mxCell>
                <mxCell id="1174" value="+ setPopulation(population : float) : void&amp;nbsp;" style="text;align=left;verticalAlign=top;spacingLeft=4;spacingRight=4;overflow=hidden;rotatable=0;points=[[0,0.5],[1,0.5]];portConstraint=eastwest;whiteSpace=wrap;html=1;container=0;fontSize=15;" parent="1154" vertex="1">
                    <mxGeometry y="502" width="1425" height="26" as="geometry"/>
                </mxCell>
                <mxCell id="1175" value="+ getPopulation() : float&amp;nbsp;" style="text;align=left;verticalAlign=top;spacingLeft=4;spacingRight=4;overflow=hidden;rotatable=0;points=[[0,0.5],[1,0.5]];portConstraint=eastwest;whiteSpace=wrap;html=1;container=0;fontSize=15;" parent="1154" vertex="1">
                    <mxGeometry y="528" width="1425" height="26" as="geometry"/>
                </mxCell>
                <mxCell id="1176" value="+ setBudgetTotal(budgetTotal : float) : void&amp;nbsp;" style="text;align=left;verticalAlign=top;spacingLeft=4;spacingRight=4;overflow=hidden;rotatable=0;points=[[0,0.5],[1,0.5]];portConstraint=eastwest;whiteSpace=wrap;html=1;container=0;fontSize=15;" parent="1154" vertex="1">
                    <mxGeometry y="554" width="1425" height="26" as="geometry"/>
                </mxCell>
                <mxCell id="1177" value="+ getBudgetTotal() : float&amp;nbsp;" style="text;align=left;verticalAlign=top;spacingLeft=4;spacingRight=4;overflow=hidden;rotatable=0;points=[[0,0.5],[1,0.5]];portConstraint=eastwest;whiteSpace=wrap;html=1;container=0;fontSize=15;" parent="1154" vertex="1">
                    <mxGeometry y="580" width="1425" height="26" as="geometry"/>
                </mxCell>
                <mxCell id="1178" value="+ setDepCulturellesTotal(depCulturellesTotal : float) : void&amp;nbsp;" style="text;align=left;verticalAlign=top;spacingLeft=4;spacingRight=4;overflow=hidden;rotatable=0;points=[[0,0.5],[1,0.5]];portConstraint=eastwest;whiteSpace=wrap;html=1;container=0;fontSize=15;" parent="1154" vertex="1">
                    <mxGeometry y="606" width="1425" height="26" as="geometry"/>
                </mxCell>
                <mxCell id="1179" value="+ getDepCulturellesTotal() : float&amp;nbsp;" style="text;align=left;verticalAlign=top;spacingLeft=4;spacingRight=4;overflow=hidden;rotatable=0;points=[[0,0.5],[1,0.5]];portConstraint=eastwest;whiteSpace=wrap;html=1;container=0;fontSize=15;" parent="1154" vertex="1">
                    <mxGeometry y="632" width="1425" height="26" as="geometry"/>
                </mxCell>
                <mxCell id="1180" value="+ setSurfaceMoy(surfaceMoy : float) : void&amp;nbsp;" style="text;align=left;verticalAlign=top;spacingLeft=4;spacingRight=4;overflow=hidden;rotatable=0;points=[[0,0.5],[1,0.5]];portConstraint=eastwest;whiteSpace=wrap;html=1;container=0;fontSize=15;" parent="1154" vertex="1">
                    <mxGeometry y="658" width="1425" height="26" as="geometry"/>
                </mxCell>
                <mxCell id="1181" value="+ getSurfaceMoy() : float&amp;nbsp;" style="text;align=left;verticalAlign=top;spacingLeft=4;spacingRight=4;overflow=hidden;rotatable=0;points=[[0,0.5],[1,0.5]];portConstraint=eastwest;whiteSpace=wrap;html=1;container=0;fontSize=15;" parent="1154" vertex="1">
                    <mxGeometry y="684" width="1425" height="26" as="geometry"/>
                </mxCell>
                <mxCell id="1182" value="+ setPrixM2Moyen(prixM2Moyen : float) : void&amp;nbsp;" style="text;align=left;verticalAlign=top;spacingLeft=4;spacingRight=4;overflow=hidden;rotatable=0;points=[[0,0.5],[1,0.5]];portConstraint=eastwest;whiteSpace=wrap;html=1;container=0;fontSize=15;" parent="1154" vertex="1">
                    <mxGeometry y="710" width="1425" height="26" as="geometry"/>
                </mxCell>
                <mxCell id="1183" value="+ getPrixM2Moyen() : float&amp;nbsp;" style="text;align=left;verticalAlign=top;spacingLeft=4;spacingRight=4;overflow=hidden;rotatable=0;points=[[0,0.5],[1,0.5]];portConstraint=eastwest;whiteSpace=wrap;html=1;container=0;fontSize=15;" parent="1154" vertex="1">
                    <mxGeometry y="736" width="1425" height="26" as="geometry"/>
                </mxCell>
                <mxCell id="1184" value="+ setPrixMoyen(prixMoyen : float) : void&amp;nbsp;" style="text;align=left;verticalAlign=top;spacingLeft=4;spacingRight=4;overflow=hidden;rotatable=0;points=[[0,0.5],[1,0.5]];portConstraint=eastwest;whiteSpace=wrap;html=1;container=0;fontSize=15;" parent="1154" vertex="1">
                    <mxGeometry y="762" width="1425" height="26" as="geometry"/>
                </mxCell>
                <mxCell id="1185" value="+ getPrixMoyen() : float&amp;nbsp;" style="text;align=left;verticalAlign=top;spacingLeft=4;spacingRight=4;overflow=hidden;rotatable=0;points=[[0,0.5],[1,0.5]];portConstraint=eastwest;whiteSpace=wrap;html=1;container=0;fontSize=15;" parent="1154" vertex="1">
                    <mxGeometry y="788" width="1425" height="26" as="geometry"/>
                </mxCell>
                <mxCell id="1186" value="+ afficherCompareTo(commune1 : String, commune2 : String, tab : int[], nomVal : String[]) : String" style="text;align=left;verticalAlign=top;spacingLeft=4;spacingRight=4;overflow=hidden;rotatable=0;points=[[0,0.5],[1,0.5]];portConstraint=eastwest;whiteSpace=wrap;html=1;container=0;fontSize=15;" parent="1154" vertex="1">
                    <mxGeometry y="814" width="1425" height="27.83024630541872" as="geometry"/>
                </mxCell>
                <mxCell id="1187" value="+ compareTo(otherAnneeCommune : anneeCommune) : int[]&amp;nbsp;" style="text;align=left;verticalAlign=top;spacingLeft=4;spacingRight=4;overflow=hidden;rotatable=0;points=[[0,0.5],[1,0.5]];portConstraint=eastwest;whiteSpace=wrap;html=1;container=0;fontSize=15;" parent="1154" vertex="1">
                    <mxGeometry y="841.8302463054188" width="1425" height="26" as="geometry"/>
                </mxCell>
                <mxCell id="1188" value="" style="endArrow=none;shadow=0;strokeWidth=1;rounded=0;curved=0;endFill=0;edgeStyle=elbowEdgeStyle;elbow=vertical;startArrow=open;startFill=0;" parent="1" source="1228" target="1133" edge="1">
                    <mxGeometry x="0.5" y="41" relative="1" as="geometry">
                        <mxPoint x="-2900" y="1407.97" as="sourcePoint"/>
                        <mxPoint x="-2902" y="1511.97" as="targetPoint"/>
                        <mxPoint x="-40" y="32" as="offset"/>
                        <Array as="points">
                            <mxPoint x="-2873" y="1691.97"/>
                        </Array>
                    </mxGeometry>
                </mxCell>
                <mxCell id="1189" style="edgeStyle=orthogonalEdgeStyle;rounded=0;orthogonalLoop=1;jettySize=auto;html=1;endArrow=none;endFill=0;startArrow=open;startFill=0;" parent="1" source="1205" target="1103" edge="1">
                    <mxGeometry relative="1" as="geometry">
                        <Array as="points">
                            <mxPoint x="-3389" y="1538.97"/>
                            <mxPoint x="-3389" y="1538.97"/>
                        </Array>
                    </mxGeometry>
                </mxCell>
                <mxCell id="1190" style="edgeStyle=none;html=1;endArrow=open;endFill=0;exitX=0.974;exitY=-0.004;exitDx=0;exitDy=0;exitPerimeter=0;" parent="1" source="1154" target="1103" edge="1">
                    <mxGeometry relative="1" as="geometry">
                        <Array as="points">
                            <mxPoint x="-3844" y="1103"/>
                        </Array>
                    </mxGeometry>
                </mxCell>
                <mxCell id="1191" value="Annee" style="swimlane;fontStyle=2;align=center;verticalAlign=top;childLayout=stackLayout;horizontal=1;startSize=26;horizontalStack=0;resizeParent=1;resizeLast=0;collapsible=1;marginBottom=0;rounded=0;shadow=0;strokeWidth=1;swimlaneFillColor=default;strokeColor=default;fillColor=#1ba1e2;fontColor=#ffffff;fontSize=15;" parent="1" vertex="1">
                    <mxGeometry x="-4586.92" y="787.97" width="319" height="286.03" as="geometry">
                        <mxRectangle x="550" y="140" width="160" height="26" as="alternateBounds"/>
                    </mxGeometry>
                </mxCell>
                <mxCell id="1192" value="- annee : int" style="text;align=left;verticalAlign=top;spacingLeft=4;spacingRight=4;overflow=hidden;rotatable=0;points=[[0,0.5],[1,0.5]];portConstraint=eastwest;fontSize=15;" parent="1191" vertex="1">
                    <mxGeometry y="26" width="319" height="32.95187165775401" as="geometry"/>
                </mxCell>
                <mxCell id="1193" value="- tauxInflation : float" style="text;align=left;verticalAlign=top;spacingLeft=4;spacingRight=4;overflow=hidden;rotatable=0;points=[[0,0.5],[1,0.5]];portConstraint=eastwest;rounded=0;shadow=0;html=0;fontSize=15;" parent="1191" vertex="1">
                    <mxGeometry y="58.95187165775401" width="319" height="32.95187165775401" as="geometry"/>
                </mxCell>
                <mxCell id="1194" value="" style="line;strokeWidth=1;align=left;verticalAlign=middle;spacingTop=-1;spacingLeft=3;spacingRight=3;rotatable=0;labelPosition=right;points=[];portConstraint=eastwest;" parent="1191" vertex="1">
                    <mxGeometry y="91.90374331550802" width="319" height="8" as="geometry"/>
                </mxCell>
                <mxCell id="1195" value="+ Annee(annee : int, tauxInflation : float) " style="text;align=left;verticalAlign=top;spacingLeft=4;spacingRight=4;overflow=hidden;rotatable=0;points=[[0,0.5],[1,0.5]];portConstraint=eastwest;rounded=0;shadow=0;html=0;fontSize=15;" parent="1191" vertex="1">
                    <mxGeometry y="99.90374331550802" width="319" height="26" as="geometry"/>
                </mxCell>
                <mxCell id="1196" value="+ getAnnee() : int&#10;" style="text;align=left;verticalAlign=top;spacingLeft=4;spacingRight=4;overflow=hidden;rotatable=0;points=[[0,0.5],[1,0.5]];portConstraint=eastwest;rounded=0;shadow=0;html=0;fontSize=15;" parent="1191" vertex="1">
                    <mxGeometry y="125.90374331550802" width="319" height="26" as="geometry"/>
                </mxCell>
                <mxCell id="1197" value="+ getTauxInflation() : float " style="text;align=left;verticalAlign=top;spacingLeft=4;spacingRight=4;overflow=hidden;rotatable=0;points=[[0,0.5],[1,0.5]];portConstraint=eastwest;rounded=0;shadow=0;html=0;fontSize=15;" parent="1191" vertex="1">
                    <mxGeometry y="151.90374331550802" width="319" height="26" as="geometry"/>
                </mxCell>
                <mxCell id="1198" value="+ setAnnee(annee : int) : void&#10;" style="text;align=left;verticalAlign=top;spacingLeft=4;spacingRight=4;overflow=hidden;rotatable=0;points=[[0,0.5],[1,0.5]];portConstraint=eastwest;rounded=0;shadow=0;html=0;fontSize=15;" parent="1191" vertex="1">
                    <mxGeometry y="177.90374331550802" width="319" height="26" as="geometry"/>
                </mxCell>
                <mxCell id="1199" value="+ setTauxInflation(tauxInflation : float) : void " style="text;align=left;verticalAlign=top;spacingLeft=4;spacingRight=4;overflow=hidden;rotatable=0;points=[[0,0.5],[1,0.5]];portConstraint=eastwest;rounded=0;shadow=0;html=0;fontSize=15;" parent="1191" vertex="1">
                    <mxGeometry y="203.90374331550802" width="319" height="26" as="geometry"/>
                </mxCell>
                <mxCell id="1200" value="+ toString() : String" style="text;align=left;verticalAlign=top;spacingLeft=4;spacingRight=4;overflow=hidden;rotatable=0;points=[[0,0.5],[1,0.5]];portConstraint=eastwest;rounded=0;shadow=0;html=0;fontSize=15;" parent="1191" vertex="1">
                    <mxGeometry y="229.90374331550802" width="319" height="26" as="geometry"/>
                </mxCell>
                <mxCell id="1201" value="+ anneeMaxInflation(annee : Annee[]) : Annee" style="text;align=left;verticalAlign=top;spacingLeft=4;spacingRight=4;overflow=hidden;rotatable=0;points=[[0,0.5],[1,0.5]];portConstraint=eastwest;rounded=0;shadow=0;html=0;fontSize=15;" parent="1191" vertex="1">
                    <mxGeometry y="255.90374331550802" width="319" height="26" as="geometry"/>
                </mxCell>
                <mxCell id="1202" value="- leDepartement" style="text;html=1;align=center;verticalAlign=middle;whiteSpace=wrap;rounded=0;fontSize=15;" parent="1" vertex="1">
                    <mxGeometry x="-3078" y="937.97" width="134" height="38.02" as="geometry"/>
                </mxCell>
                <mxCell id="1203" value="*" style="text;html=1;align=center;verticalAlign=middle;whiteSpace=wrap;rounded=0;" parent="1" vertex="1">
                    <mxGeometry x="-3549" y="909.97" width="13" height="21" as="geometry"/>
                </mxCell>
                <mxCell id="1204" value="- uneAnnee" style="text;html=1;align=center;verticalAlign=middle;resizable=0;points=[];autosize=1;strokeColor=none;fillColor=none;fontSize=15;" parent="1" vertex="1">
                    <mxGeometry x="-4504" y="1156.9678609625669" width="96" height="30" as="geometry"/>
                </mxCell>
                <mxCell id="1205" value="Gare" style="swimlane;fontStyle=1;align=center;verticalAlign=top;childLayout=stackLayout;horizontal=1;startSize=26;horizontalStack=0;resizeParent=1;resizeParentMax=0;resizeLast=0;collapsible=1;marginBottom=0;whiteSpace=wrap;html=1;swimlaneFillColor=default;strokeColor=default;fillColor=#1ba1e2;fontColor=#ffffff;movable=1;resizable=1;rotatable=1;deletable=1;editable=1;connectable=1;fontSize=15;" parent="1" vertex="1">
                    <mxGeometry x="-3786" y="1476.97" width="736" height="580" as="geometry"/>
                </mxCell>
                <mxCell id="1206" value="- codeGare : int" style="text;align=left;verticalAlign=top;spacingLeft=4;spacingRight=4;overflow=hidden;rotatable=0;points=[[0,0.5],[1,0.5]];portConstraint=eastwest;whiteSpace=wrap;html=1;fontSize=15;" parent="1205" vertex="1">
                    <mxGeometry y="26" width="736" height="26" as="geometry"/>
                </mxCell>
                <mxCell id="1207" value="- nomGare : String" style="text;align=left;verticalAlign=top;spacingLeft=4;spacingRight=4;overflow=hidden;rotatable=0;points=[[0,0.5],[1,0.5]];portConstraint=eastwest;whiteSpace=wrap;html=1;fontSize=15;" parent="1205" vertex="1">
                    <mxGeometry y="52" width="736" height="26" as="geometry"/>
                </mxCell>
                <mxCell id="1208" value="&lt;div style=&quot;font-size: 15px;&quot;&gt;- estFret : boolean&lt;/div&gt;" style="text;align=left;verticalAlign=top;spacingLeft=4;spacingRight=4;overflow=hidden;rotatable=0;points=[[0,0.5],[1,0.5]];portConstraint=eastwest;whiteSpace=wrap;html=1;fontSize=15;" parent="1205" vertex="1">
                    <mxGeometry y="78" width="736" height="26" as="geometry"/>
                </mxCell>
                <mxCell id="1209" value="&lt;div style=&quot;font-size: 15px;&quot;&gt;- estVoyageur : boolean&lt;/div&gt;" style="text;align=left;verticalAlign=top;spacingLeft=4;spacingRight=4;overflow=hidden;rotatable=0;points=[[0,0.5],[1,0.5]];portConstraint=eastwest;whiteSpace=wrap;html=1;fontSize=15;" parent="1205" vertex="1">
                    <mxGeometry y="104" width="736" height="26" as="geometry"/>
                </mxCell>
                <mxCell id="1210" value="" style="line;strokeWidth=1;align=left;verticalAlign=middle;spacingTop=-1;spacingLeft=3;spacingRight=3;rotatable=0;labelPosition=right;points=[];portConstraint=eastwest;" parent="1205" vertex="1">
                    <mxGeometry y="130" width="736" height="8" as="geometry"/>
                </mxCell>
                <mxCell id="1211" value="+ Gare(codeGare : int, nomGare : String, estFret : boolean, estVoyageur : boolean, laCommune : Commune)&lt;br style=&quot;font-size: 15px;&quot;&gt;" style="text;align=left;verticalAlign=top;spacingLeft=4;spacingRight=4;overflow=hidden;rotatable=0;points=[[0,0.5],[1,0.5]];portConstraint=eastwest;whiteSpace=wrap;html=1;fontSize=15;" parent="1205" vertex="1">
                    <mxGeometry y="138" width="736" height="26" as="geometry"/>
                </mxCell>
                <mxCell id="1212" value="&lt;div style=&quot;font-size: 15px;&quot;&gt;+ getCodeGare() : int&lt;br style=&quot;font-size: 15px;&quot;&gt;&lt;/div&gt;" style="text;align=left;verticalAlign=top;spacingLeft=4;spacingRight=4;overflow=hidden;rotatable=0;points=[[0,0.5],[1,0.5]];portConstraint=eastwest;whiteSpace=wrap;html=1;fontSize=15;" parent="1205" vertex="1">
                    <mxGeometry y="164" width="736" height="26" as="geometry"/>
                </mxCell>
                <mxCell id="1213" value="&lt;div style=&quot;font-size: 15px;&quot;&gt;+ getNomGare() : String&lt;br style=&quot;font-size: 15px;&quot;&gt;&lt;/div&gt;" style="text;align=left;verticalAlign=top;spacingLeft=4;spacingRight=4;overflow=hidden;rotatable=0;points=[[0,0.5],[1,0.5]];portConstraint=eastwest;whiteSpace=wrap;html=1;fontSize=15;" parent="1205" vertex="1">
                    <mxGeometry y="190" width="736" height="26" as="geometry"/>
                </mxCell>
                <mxCell id="1214" value="&lt;div style=&quot;font-size: 15px;&quot;&gt;+ getEstFret() : boolean&lt;br style=&quot;font-size: 15px;&quot;&gt;&lt;/div&gt;" style="text;align=left;verticalAlign=top;spacingLeft=4;spacingRight=4;overflow=hidden;rotatable=0;points=[[0,0.5],[1,0.5]];portConstraint=eastwest;whiteSpace=wrap;html=1;fontSize=15;" parent="1205" vertex="1">
                    <mxGeometry y="216" width="736" height="26" as="geometry"/>
                </mxCell>
                <mxCell id="1215" value="&lt;div style=&quot;font-size: 15px;&quot;&gt;+ getEstVoyageur() : boolean&lt;br style=&quot;font-size: 15px;&quot;&gt;&lt;/div&gt;" style="text;align=left;verticalAlign=top;spacingLeft=4;spacingRight=4;overflow=hidden;rotatable=0;points=[[0,0.5],[1,0.5]];portConstraint=eastwest;whiteSpace=wrap;html=1;fontSize=15;" parent="1205" vertex="1">
                    <mxGeometry y="242" width="736" height="26" as="geometry"/>
                </mxCell>
                <mxCell id="1216" value="+ getLaCommune() : Commune&lt;br style=&quot;font-size: 15px;&quot;&gt;" style="text;align=left;verticalAlign=top;spacingLeft=4;spacingRight=4;overflow=hidden;rotatable=0;points=[[0,0.5],[1,0.5]];portConstraint=eastwest;whiteSpace=wrap;html=1;fontSize=15;" parent="1205" vertex="1">
                    <mxGeometry y="268" width="736" height="26" as="geometry"/>
                </mxCell>
                <mxCell id="1217" value="+ setEstFret(estFret : boolean) : void&lt;br style=&quot;font-size: 15px;&quot;&gt;" style="text;align=left;verticalAlign=top;spacingLeft=4;spacingRight=4;overflow=hidden;rotatable=0;points=[[0,0.5],[1,0.5]];portConstraint=eastwest;whiteSpace=wrap;html=1;fontSize=15;" parent="1205" vertex="1">
                    <mxGeometry y="294" width="736" height="26" as="geometry"/>
                </mxCell>
                <mxCell id="1218" value="+ setEstVoyageur(estVoyageur : boolean) : void&lt;br style=&quot;font-size: 15px;&quot;&gt;" style="text;align=left;verticalAlign=top;spacingLeft=4;spacingRight=4;overflow=hidden;rotatable=0;points=[[0,0.5],[1,0.5]];portConstraint=eastwest;whiteSpace=wrap;html=1;fontSize=15;" parent="1205" vertex="1">
                    <mxGeometry y="320" width="736" height="26" as="geometry"/>
                </mxCell>
                <mxCell id="1219" value="+ setNomGare(nomGare : String) : void&lt;br style=&quot;font-size: 15px;&quot;&gt;" style="text;align=left;verticalAlign=top;spacingLeft=4;spacingRight=4;overflow=hidden;rotatable=0;points=[[0,0.5],[1,0.5]];portConstraint=eastwest;whiteSpace=wrap;html=1;fontSize=15;" parent="1205" vertex="1">
                    <mxGeometry y="346" width="736" height="26" as="geometry"/>
                </mxCell>
                <mxCell id="1220" value="+ setLaCommune(laCommune : Commune) : void&lt;br style=&quot;font-size: 15px;&quot;&gt;" style="text;align=left;verticalAlign=top;spacingLeft=4;spacingRight=4;overflow=hidden;rotatable=0;points=[[0,0.5],[1,0.5]];portConstraint=eastwest;whiteSpace=wrap;html=1;fontSize=15;" parent="1205" vertex="1">
                    <mxGeometry y="372" width="736" height="26" as="geometry"/>
                </mxCell>
                <mxCell id="1221" value="+ setCodeGare(codeGare : int) : void&amp;nbsp;" style="text;align=left;verticalAlign=top;spacingLeft=4;spacingRight=4;overflow=hidden;rotatable=0;points=[[0,0.5],[1,0.5]];portConstraint=eastwest;whiteSpace=wrap;html=1;fontSize=15;" parent="1205" vertex="1">
                    <mxGeometry y="398" width="736" height="26" as="geometry"/>
                </mxCell>
                <mxCell id="1222" value="+ toString() : String" style="text;align=left;verticalAlign=top;spacingLeft=4;spacingRight=4;overflow=hidden;rotatable=0;points=[[0,0.5],[1,0.5]];portConstraint=eastwest;whiteSpace=wrap;html=1;fontSize=15;" parent="1205" vertex="1">
                    <mxGeometry y="424" width="736" height="26" as="geometry"/>
                </mxCell>
                <mxCell id="1223" value="+ addDestinationGare(gare : Gare) : void" style="text;align=left;verticalAlign=top;spacingLeft=4;spacingRight=4;overflow=hidden;rotatable=0;points=[[0,0.5],[1,0.5]];portConstraint=eastwest;whiteSpace=wrap;html=1;fontSize=15;" parent="1205" vertex="1">
                    <mxGeometry y="450" width="736" height="26" as="geometry"/>
                </mxCell>
                <mxCell id="1224" value="+ removeDestinationGare(gare : Gare) : void" style="text;align=left;verticalAlign=top;spacingLeft=4;spacingRight=4;overflow=hidden;rotatable=0;points=[[0,0.5],[1,0.5]];portConstraint=eastwest;whiteSpace=wrap;html=1;fontSize=15;" parent="1205" vertex="1">
                    <mxGeometry y="476" width="736" height="26" as="geometry"/>
                </mxCell>
                <mxCell id="1225" value="+ getDestinationGare() : ArrayList&amp;lt;Gare&amp;gt;" style="text;align=left;verticalAlign=top;spacingLeft=4;spacingRight=4;overflow=hidden;rotatable=0;points=[[0,0.5],[1,0.5]];portConstraint=eastwest;whiteSpace=wrap;html=1;fontSize=15;" parent="1205" vertex="1">
                    <mxGeometry y="502" width="736" height="26" as="geometry"/>
                </mxCell>
                <mxCell id="1226" value="+ setDestinationGare(gareDestination : ArrayList&amp;lt;Gare&amp;gt;) : void" style="text;align=left;verticalAlign=top;spacingLeft=4;spacingRight=4;overflow=hidden;rotatable=0;points=[[0,0.5],[1,0.5]];portConstraint=eastwest;whiteSpace=wrap;html=1;fontSize=15;" parent="1205" vertex="1">
                    <mxGeometry y="528" width="736" height="26" as="geometry"/>
                </mxCell>
                <mxCell id="1227" value="+ rechercheDestinationGare(nomGare : String) : ArrayList&amp;lt;Gare&amp;gt;" style="text;align=left;verticalAlign=top;spacingLeft=4;spacingRight=4;overflow=hidden;rotatable=0;points=[[0,0.5],[1,0.5]];portConstraint=eastwest;whiteSpace=wrap;html=1;fontSize=15;" parent="1205" vertex="1">
                    <mxGeometry y="554" width="736" height="26" as="geometry"/>
                </mxCell>
                <mxCell id="1228" value="Aeroport" style="swimlane;fontStyle=1;align=center;verticalAlign=top;childLayout=stackLayout;horizontal=1;startSize=26;horizontalStack=0;resizeParent=1;resizeParentMax=0;resizeLast=0;collapsible=1;marginBottom=0;whiteSpace=wrap;html=1;swimlaneFillColor=default;strokeColor=default;fillColor=#1ba1e2;fontColor=#ffffff;fontSize=15;" parent="1" vertex="1">
                    <mxGeometry x="-3026" y="1665.97" width="526" height="424" as="geometry">
                        <mxRectangle x="30" y="520" width="70" height="30" as="alternateBounds"/>
                    </mxGeometry>
                </mxCell>
                <mxCell id="1229" value="- nom : String" style="text;align=left;verticalAlign=top;spacingLeft=4;spacingRight=4;overflow=hidden;rotatable=0;points=[[0,0.5],[1,0.5]];portConstraint=eastwest;whiteSpace=wrap;html=1;fontSize=15;" parent="1228" vertex="1">
                    <mxGeometry y="26" width="526" height="26" as="geometry"/>
                </mxCell>
                <mxCell id="1230" value="- adresse : String" style="text;align=left;verticalAlign=top;spacingLeft=4;spacingRight=4;overflow=hidden;rotatable=0;points=[[0,0.5],[1,0.5]];portConstraint=eastwest;whiteSpace=wrap;html=1;fontSize=15;" parent="1228" vertex="1">
                    <mxGeometry y="52" width="526" height="26" as="geometry"/>
                </mxCell>
                <mxCell id="1231" value="" style="line;strokeWidth=1;align=left;verticalAlign=middle;spacingTop=-1;spacingLeft=3;spacingRight=3;rotatable=0;labelPosition=right;points=[];portConstraint=eastwest;" parent="1228" vertex="1">
                    <mxGeometry y="78" width="526" height="8" as="geometry"/>
                </mxCell>
                <mxCell id="1232" value="&lt;div style=&quot;font-size: 15px;&quot;&gt;+ Aeroport(leDepartement : Departement, nom : String, adresse : String)&lt;br style=&quot;font-size: 15px;&quot;&gt;&lt;/div&gt;" style="text;align=left;verticalAlign=top;spacingLeft=4;spacingRight=4;overflow=hidden;rotatable=0;points=[[0,0.5],[1,0.5]];portConstraint=eastwest;whiteSpace=wrap;html=1;fontSize=15;" parent="1228" vertex="1">
                    <mxGeometry y="86" width="526" height="26" as="geometry"/>
                </mxCell>
                <mxCell id="1233" value="&lt;div style=&quot;font-size: 15px;&quot;&gt;+ getLeDepartement() : Departement&lt;br style=&quot;font-size: 15px;&quot;&gt;&lt;/div&gt;" style="text;align=left;verticalAlign=top;spacingLeft=4;spacingRight=4;overflow=hidden;rotatable=0;points=[[0,0.5],[1,0.5]];portConstraint=eastwest;whiteSpace=wrap;html=1;fontSize=15;" parent="1228" vertex="1">
                    <mxGeometry y="112" width="526" height="26" as="geometry"/>
                </mxCell>
                <mxCell id="1234" value="+ getNom() : String&lt;br style=&quot;font-size: 15px;&quot;&gt;" style="text;align=left;verticalAlign=top;spacingLeft=4;spacingRight=4;overflow=hidden;rotatable=0;points=[[0,0.5],[1,0.5]];portConstraint=eastwest;whiteSpace=wrap;html=1;fontSize=15;" parent="1228" vertex="1">
                    <mxGeometry y="138" width="526" height="26" as="geometry"/>
                </mxCell>
                <mxCell id="1235" value="+ getAdresse() : String&lt;br style=&quot;font-size: 15px;&quot;&gt;" style="text;align=left;verticalAlign=top;spacingLeft=4;spacingRight=4;overflow=hidden;rotatable=0;points=[[0,0.5],[1,0.5]];portConstraint=eastwest;whiteSpace=wrap;html=1;fontSize=15;" parent="1228" vertex="1">
                    <mxGeometry y="164" width="526" height="26" as="geometry"/>
                </mxCell>
                <mxCell id="1236" value="+ setLeDepartement(leDepartement : Departement) : void&amp;nbsp;" style="text;align=left;verticalAlign=top;spacingLeft=4;spacingRight=4;overflow=hidden;rotatable=0;points=[[0,0.5],[1,0.5]];portConstraint=eastwest;whiteSpace=wrap;html=1;fontSize=15;" parent="1228" vertex="1">
                    <mxGeometry y="190" width="526" height="26" as="geometry"/>
                </mxCell>
                <mxCell id="1237" value="+ setNom(nom : String) : void&amp;nbsp;" style="text;align=left;verticalAlign=top;spacingLeft=4;spacingRight=4;overflow=hidden;rotatable=0;points=[[0,0.5],[1,0.5]];portConstraint=eastwest;whiteSpace=wrap;html=1;fontSize=15;" parent="1228" vertex="1">
                    <mxGeometry y="216" width="526" height="26" as="geometry"/>
                </mxCell>
                <mxCell id="1238" value="+ setAdresse(adresse : String) : void&amp;nbsp;" style="text;align=left;verticalAlign=top;spacingLeft=4;spacingRight=4;overflow=hidden;rotatable=0;points=[[0,0.5],[1,0.5]];portConstraint=eastwest;whiteSpace=wrap;html=1;fontSize=15;" parent="1228" vertex="1">
                    <mxGeometry y="242" width="526" height="26" as="geometry"/>
                </mxCell>
                <mxCell id="1239" value="+ toString() : String" style="text;align=left;verticalAlign=top;spacingLeft=4;spacingRight=4;overflow=hidden;rotatable=0;points=[[0,0.5],[1,0.5]];portConstraint=eastwest;whiteSpace=wrap;html=1;fontSize=15;" parent="1228" vertex="1">
                    <mxGeometry y="268" width="526" height="26" as="geometry"/>
                </mxCell>
                <mxCell id="1240" value="+ addDestinationAeroport(aeroport : Aeroport) : void" style="text;align=left;verticalAlign=top;spacingLeft=4;spacingRight=4;overflow=hidden;rotatable=0;points=[[0,0.5],[1,0.5]];portConstraint=eastwest;whiteSpace=wrap;html=1;fontSize=15;" parent="1228" vertex="1">
                    <mxGeometry y="294" width="526" height="26" as="geometry"/>
                </mxCell>
                <mxCell id="1241" value="+ removeDestinationAeroport(aeroport : Aeroport) : void" style="text;align=left;verticalAlign=top;spacingLeft=4;spacingRight=4;overflow=hidden;rotatable=0;points=[[0,0.5],[1,0.5]];portConstraint=eastwest;whiteSpace=wrap;html=1;fontSize=15;" parent="1228" vertex="1">
                    <mxGeometry y="320" width="526" height="26" as="geometry"/>
                </mxCell>
                <mxCell id="1242" value="+ getDestinationAeroport() : ArrayList&amp;lt;Aeroport&amp;gt;" style="text;align=left;verticalAlign=top;spacingLeft=4;spacingRight=4;overflow=hidden;rotatable=0;points=[[0,0.5],[1,0.5]];portConstraint=eastwest;whiteSpace=wrap;html=1;fontSize=15;" parent="1228" vertex="1">
                    <mxGeometry y="346" width="526" height="26" as="geometry"/>
                </mxCell>
                <mxCell id="1243" value="+ setDestinationAeroport(aeroportDestination : ArrayList&amp;lt;Aeroport&amp;gt;) : void" style="text;align=left;verticalAlign=top;spacingLeft=4;spacingRight=4;overflow=hidden;rotatable=0;points=[[0,0.5],[1,0.5]];portConstraint=eastwest;whiteSpace=wrap;html=1;fontSize=15;" parent="1228" vertex="1">
                    <mxGeometry y="372" width="526" height="26" as="geometry"/>
                </mxCell>
                <mxCell id="1244" value="+ rechercheDestinationAeroport(nomAeroport : String) : ArrayList&amp;lt;Aeroport&amp;gt;" style="text;align=left;verticalAlign=top;spacingLeft=4;spacingRight=4;overflow=hidden;rotatable=0;points=[[0,0.5],[1,0.5]];portConstraint=eastwest;whiteSpace=wrap;html=1;fontSize=15;" parent="1228" vertex="1">
                    <mxGeometry y="398" width="526" height="26" as="geometry"/>
                </mxCell>
                <mxCell id="1245" value="ModelScenario" style="swimlane;fontStyle=2;align=center;verticalAlign=top;childLayout=stackLayout;horizontal=1;startSize=26;horizontalStack=0;resizeParent=1;resizeLast=0;collapsible=1;marginBottom=0;rounded=0;shadow=0;strokeWidth=1;swimlaneFillColor=default;strokeColor=default;fillColor=#1ba1e2;fontColor=#ffffff;fontSize=15;" parent="1" vertex="1">
                    <mxGeometry x="-4162" y="246" width="319" height="320" as="geometry">
                        <mxRectangle x="550" y="140" width="160" height="26" as="alternateBounds"/>
                    </mxGeometry>
                </mxCell>
                <mxCell id="1246" value="" style="line;strokeWidth=1;align=left;verticalAlign=middle;spacingTop=-1;spacingLeft=3;spacingRight=3;rotatable=0;labelPosition=right;points=[];portConstraint=eastwest;" parent="1245" vertex="1">
                    <mxGeometry y="26" width="319" height="8" as="geometry"/>
                </mxCell>
                <mxCell id="1247" value="+ main(args : String[]) : void" style="text;align=left;verticalAlign=top;spacingLeft=4;spacingRight=4;overflow=hidden;rotatable=0;points=[[0,0.5],[1,0.5]];portConstraint=eastwest;rounded=0;shadow=0;html=0;fontSize=15;fontStyle=4" parent="1245" vertex="1">
                    <mxGeometry y="34" width="319" height="26" as="geometry"/>
                </mxCell>
                <mxCell id="1248" value="+ testConstructeur() : void" style="text;align=left;verticalAlign=top;spacingLeft=4;spacingRight=4;overflow=hidden;rotatable=0;points=[[0,0.5],[1,0.5]];portConstraint=eastwest;rounded=0;shadow=0;html=0;fontSize=15;fontStyle=4" parent="1245" vertex="1">
                    <mxGeometry y="60" width="319" height="26" as="geometry"/>
                </mxCell>
                <mxCell id="1249" value="+ testGetters() : void" style="text;align=left;verticalAlign=top;spacingLeft=4;spacingRight=4;overflow=hidden;rotatable=0;points=[[0,0.5],[1,0.5]];portConstraint=eastwest;rounded=0;shadow=0;html=0;fontSize=15;fontStyle=4" parent="1245" vertex="1">
                    <mxGeometry y="86" width="319" height="26" as="geometry"/>
                </mxCell>
                <mxCell id="1250" value="+ testSetters() : void" style="text;align=left;verticalAlign=top;spacingLeft=4;spacingRight=4;overflow=hidden;rotatable=0;points=[[0,0.5],[1,0.5]];portConstraint=eastwest;rounded=0;shadow=0;html=0;fontSize=15;fontStyle=4" parent="1245" vertex="1">
                    <mxGeometry y="112" width="319" height="26" as="geometry"/>
                </mxCell>
                <mxCell id="1251" value="+ testCommuneVoisine() : void" style="text;align=left;verticalAlign=top;spacingLeft=4;spacingRight=4;overflow=hidden;rotatable=0;points=[[0,0.5],[1,0.5]];portConstraint=eastwest;rounded=0;shadow=0;html=0;fontSize=15;fontStyle=4" parent="1245" vertex="1">
                    <mxGeometry y="138" width="319" height="26" as="geometry"/>
                </mxCell>
                <mxCell id="1252" value="+ testCompareToAnneeCommune() : void" style="text;align=left;verticalAlign=top;spacingLeft=4;spacingRight=4;overflow=hidden;rotatable=0;points=[[0,0.5],[1,0.5]];portConstraint=eastwest;rounded=0;shadow=0;html=0;fontSize=15;fontStyle=4" parent="1245" vertex="1">
                    <mxGeometry y="164" width="319" height="26" as="geometry"/>
                </mxCell>
                <mxCell id="1253" value="+ testAnneeMaxInflation() : void" style="text;align=left;verticalAlign=top;spacingLeft=4;spacingRight=4;overflow=hidden;rotatable=0;points=[[0,0.5],[1,0.5]];portConstraint=eastwest;rounded=0;shadow=0;html=0;fontSize=15;fontStyle=4" parent="1245" vertex="1">
                    <mxGeometry y="190" width="319" height="26" as="geometry"/>
                </mxCell>
                <mxCell id="1254" value="+ testCommuneMaxCommuneVoisine() : void" style="text;align=left;verticalAlign=top;spacingLeft=4;spacingRight=4;overflow=hidden;rotatable=0;points=[[0,0.5],[1,0.5]];portConstraint=eastwest;rounded=0;shadow=0;html=0;fontSize=15;fontStyle=4" parent="1245" vertex="1">
                    <mxGeometry y="216" width="319" height="26" as="geometry"/>
                </mxCell>
                <mxCell id="1255" value="+ testRechercheAeroport() : void" style="text;align=left;verticalAlign=top;spacingLeft=4;spacingRight=4;overflow=hidden;rotatable=0;points=[[0,0.5],[1,0.5]];portConstraint=eastwest;rounded=0;shadow=0;html=0;fontSize=15;fontStyle=4" parent="1245" vertex="1">
                    <mxGeometry y="242" width="319" height="26" as="geometry"/>
                </mxCell>
                <mxCell id="1256" value="+ testDestinationAeroport() : void" style="text;align=left;verticalAlign=top;spacingLeft=4;spacingRight=4;overflow=hidden;rotatable=0;points=[[0,0.5],[1,0.5]];portConstraint=eastwest;rounded=0;shadow=0;html=0;fontSize=15;fontStyle=4" parent="1245" vertex="1">
                    <mxGeometry y="268" width="319" height="26" as="geometry"/>
                </mxCell>
                <mxCell id="1257" value="+ testDestinationGare() : void" style="text;align=left;verticalAlign=top;spacingLeft=4;spacingRight=4;overflow=hidden;rotatable=0;points=[[0,0.5],[1,0.5]];portConstraint=eastwest;rounded=0;shadow=0;html=0;fontSize=15;fontStyle=4" parent="1245" vertex="1">
                    <mxGeometry y="294" width="319" height="26" as="geometry"/>
                </mxCell>
                <mxCell id="1258" value="" style="endArrow=open;html=1;rounded=0;dashed=1;endFill=0;" parent="1" source="1245" target="1103" edge="1">
                    <mxGeometry width="50" height="50" relative="1" as="geometry">
                        <mxPoint x="-3930" y="816.97" as="sourcePoint"/>
                        <mxPoint x="-3880" y="766.97" as="targetPoint"/>
                    </mxGeometry>
                </mxCell>
                <mxCell id="1259" value="&lt;font style=&quot;font-size: 16px;&quot;&gt;&amp;lt;&amp;lt; Local &amp;gt;&amp;gt;&lt;/font&gt;" style="edgeLabel;html=1;align=center;verticalAlign=middle;resizable=0;points=[];" parent="1258" connectable="0" vertex="1">
                    <mxGeometry x="-0.067" y="-2" relative="1" as="geometry">
                        <mxPoint as="offset"/>
                    </mxGeometry>
                </mxCell>
                <mxCell id="1260" value="" style="endArrow=open;html=1;rounded=0;dashed=1;endFill=0;" parent="1" source="1245" target="1191" edge="1">
                    <mxGeometry width="50" height="50" relative="1" as="geometry">
                        <mxPoint x="-3963" y="568.97" as="sourcePoint"/>
                        <mxPoint x="-3583" y="937.97" as="targetPoint"/>
                    </mxGeometry>
                </mxCell>
                <mxCell id="1261" value="&lt;font style=&quot;font-size: 16px;&quot;&gt;&amp;lt;&amp;lt; Local &amp;gt;&amp;gt;&lt;/font&gt;" style="edgeLabel;html=1;align=center;verticalAlign=middle;resizable=0;points=[];" parent="1260" connectable="0" vertex="1">
                    <mxGeometry x="-0.067" y="-2" relative="1" as="geometry">
                        <mxPoint as="offset"/>
                    </mxGeometry>
                </mxCell>
                <mxCell id="1262" value="" style="endArrow=open;html=1;rounded=0;dashed=1;endFill=0;" parent="1" source="1245" target="1154" edge="1">
                    <mxGeometry width="50" height="50" relative="1" as="geometry">
                        <mxPoint x="-3953" y="578.97" as="sourcePoint"/>
                        <mxPoint x="-3573" y="947.97" as="targetPoint"/>
                        <Array as="points">
                            <mxPoint x="-4180" y="900"/>
                        </Array>
                    </mxGeometry>
                </mxCell>
                <mxCell id="1263" value="&lt;font style=&quot;font-size: 16px;&quot;&gt;&amp;lt;&amp;lt; Local &amp;gt;&amp;gt;&lt;/font&gt;" style="edgeLabel;html=1;align=center;verticalAlign=middle;resizable=0;points=[];" parent="1262" connectable="0" vertex="1">
                    <mxGeometry x="-0.067" y="-2" relative="1" as="geometry">
                        <mxPoint as="offset"/>
                    </mxGeometry>
                </mxCell>
                <mxCell id="1264" value="" style="endArrow=open;html=1;rounded=0;dashed=1;endFill=0;entryX=0.166;entryY=-0.002;entryDx=0;entryDy=0;entryPerimeter=0;" parent="1" source="1245" target="1205" edge="1">
                    <mxGeometry width="50" height="50" relative="1" as="geometry">
                        <mxPoint x="-3943" y="588.97" as="sourcePoint"/>
                        <mxPoint x="-3563" y="957.97" as="targetPoint"/>
                    </mxGeometry>
                </mxCell>
                <mxCell id="1265" value="&lt;font style=&quot;font-size: 16px;&quot;&gt;&amp;lt;&amp;lt; Local &amp;gt;&amp;gt;&lt;/font&gt;" style="edgeLabel;html=1;align=center;verticalAlign=middle;resizable=0;points=[];" parent="1264" connectable="0" vertex="1">
                    <mxGeometry x="-0.067" y="-2" relative="1" as="geometry">
                        <mxPoint x="-15" y="-60" as="offset"/>
                    </mxGeometry>
                </mxCell>
                <mxCell id="1266" value="" style="endArrow=open;html=1;rounded=0;dashed=1;endFill=0;strokeWidth=1;entryX=0.75;entryY=0;entryDx=0;entryDy=0;" parent="1" source="1245" target="1133" edge="1">
                    <mxGeometry width="50" height="50" relative="1" as="geometry">
                        <mxPoint x="-3933" y="598.97" as="sourcePoint"/>
                        <mxPoint x="-3553" y="967.97" as="targetPoint"/>
                        <Array as="points">
                            <mxPoint x="-2689" y="545"/>
                        </Array>
                    </mxGeometry>
                </mxCell>
                <mxCell id="1267" value="&lt;font style=&quot;font-size: 16px;&quot;&gt;&amp;lt;&amp;lt; Local &amp;gt;&amp;gt;&lt;/font&gt;" style="edgeLabel;html=1;align=center;verticalAlign=middle;resizable=0;points=[];" parent="1266" connectable="0" vertex="1">
                    <mxGeometry x="-0.067" y="-2" relative="1" as="geometry">
                        <mxPoint as="offset"/>
                    </mxGeometry>
                </mxCell>
                <mxCell id="1268" value="" style="endArrow=open;html=1;rounded=0;dashed=1;endFill=0;entryX=0.92;entryY=0;entryDx=0;entryDy=0;entryPerimeter=0;" parent="1" source="1245" target="1228" edge="1">
                    <mxGeometry width="50" height="50" relative="1" as="geometry">
                        <mxPoint x="-3923" y="608.97" as="sourcePoint"/>
                        <mxPoint x="-2575" y="1664" as="targetPoint"/>
                        <Array as="points">
                            <mxPoint x="-2554" y="701"/>
                        </Array>
                    </mxGeometry>
                </mxCell>
                <mxCell id="1269" value="&lt;font style=&quot;font-size: 16px;&quot;&gt;&amp;lt;&amp;lt; Local &amp;gt;&amp;gt;&lt;/font&gt;" style="edgeLabel;html=1;align=center;verticalAlign=middle;resizable=0;points=[];" parent="1268" connectable="0" vertex="1">
                    <mxGeometry x="-0.067" y="-2" relative="1" as="geometry">
                        <mxPoint as="offset"/>
                    </mxGeometry>
                </mxCell>
                <mxCell id="1270" value="" style="endArrow=none;shadow=0;strokeWidth=1;rounded=0;curved=0;endFill=0;edgeStyle=elbowEdgeStyle;elbow=vertical;startArrow=open;startFill=0;" parent="1" source="1133" target="1228" edge="1">
                    <mxGeometry x="0.5" y="41" relative="1" as="geometry">
                        <mxPoint x="-2770" y="1676" as="sourcePoint"/>
                        <mxPoint x="-2770" y="1530" as="targetPoint"/>
                        <mxPoint x="-40" y="32" as="offset"/>
                        <Array as="points">
                            <mxPoint x="-2863" y="1701.97"/>
                        </Array>
                    </mxGeometry>
                </mxCell>
                <mxCell id="1275" value="Explication :" style="text;html=1;strokeColor=none;fillColor=none;align=center;verticalAlign=middle;whiteSpace=wrap;rounded=0;fontSize=25;" vertex="1" parent="1">
                    <mxGeometry x="-5290" y="290" width="250" height="30" as="geometry"/>
                </mxCell>
                <mxCell id="1276" value="&lt;div class=&quot;flex flex-grow flex-col max-w-full&quot;&gt;&lt;div class=&quot;min-h-[20px] text-message flex flex-col items-start whitespace-pre-wrap break-words [.text-message+&amp;amp;]:mt-5 juice:w-full juice:items-end overflow-x-auto gap-2&quot; dir=&quot;auto&quot; data-message-id=&quot;fef65879-78c8-4733-919c-c5ee8c028024&quot; data-message-author-role=&quot;assistant&quot;&gt;&lt;div class=&quot;flex w-full flex-col gap-1 juice:empty:hidden juice:first:pt-[3px]&quot;&gt;&lt;div class=&quot;markdown prose w-full break-words dark:prose-invert dark&quot;&gt;&lt;ul&gt;&lt;li&gt;Nous avons ajouté une classe AnneeCommune qui nous permet d'utiliser et de stocker les données des différentes années d'une commune.&lt;/li&gt;&lt;/ul&gt;&lt;/div&gt;&lt;/div&gt;&lt;/div&gt;&lt;/div&gt;&lt;div class=&quot;mt-1 flex gap-3 empty:hidden juice:-ml-3&quot;&gt;&lt;div class=&quot;items-center justify-start rounded-xl p-1 flex&quot;&gt;&lt;div class=&quot;flex items-center&quot;&gt;&lt;span data-state=&quot;closed&quot; class=&quot;&quot;&gt;&lt;button class=&quot;rounded-lg text-token-text-secondary hover:bg-token-main-surface-secondary&quot;&gt;&lt;span class=&quot;flex h-[30px] w-[30px] items-center justify-center&quot;&gt;&lt;svg class=&quot;icon-md-heavy&quot; xmlns=&quot;http://www.w3.org/2000/svg&quot; fill=&quot;none&quot; viewBox=&quot;0 0 24 24&quot; height=&quot;24&quot; width=&quot;24&quot;&gt;&lt;path fill=&quot;currentColor&quot; d=&quot;M11 4.9099C11 4.47485 10.4828 4.24734 10.1621 4.54132L6.67572 7.7372C6.49129 7.90626 6.25019 8.00005 6 8.00005H4C3.44772 8.00005 3 8.44776 3 9.00005V15C3 15.5523 3.44772 16 4 16H6C6.25019 16 6.49129 16.0938 6.67572 16.2629L10.1621 19.4588C10.4828 19.7527 11 19.5252 11 19.0902V4.9099ZM8.81069 3.06701C10.4142 1.59714 13 2.73463 13 4.9099V19.0902C13 21.2655 10.4142 22.403 8.81069 20.9331L5.61102 18H4C2.34315 18 1 16.6569 1 15V9.00005C1 7.34319 2.34315 6.00005 4 6.00005H5.61102L8.81069 3.06701ZM20.3166 6.35665C20.8019 6.09313 21.409 6.27296 21.6725 6.75833C22.5191 8.3176 22.9996 10.1042 22.9996 12.0001C22.9996 13.8507 22.5418 15.5974 21.7323 17.1302C21.4744 17.6185 20.8695 17.8054 20.3811 17.5475C19.8927 17.2896 19.7059 16.6846 19.9638 16.1962C20.6249 14.9444 20.9996 13.5175 20.9996 12.0001C20.9996 10.4458 20.6064 8.98627 19.9149 7.71262C19.6514 7.22726 19.8312 6.62017 20.3166 6.35665ZM15.7994 7.90049C16.241 7.5688 16.8679 7.65789 17.1995 8.09947C18.0156 9.18593 18.4996 10.5379 18.4996 12.0001C18.4996 13.3127 18.1094 14.5372 17.4385 15.5604C17.1357 16.0222 16.5158 16.1511 16.0539 15.8483C15.5921 15.5455 15.4632 14.9255 15.766 14.4637C16.2298 13.7564 16.4996 12.9113 16.4996 12.0001C16.4996 10.9859 16.1653 10.0526 15.6004 9.30063C15.2687 8.85905 15.3578 8.23218 15.7994 7.90049Z&quot; clip-rule=&quot;evenodd&quot; fill-rule=&quot;evenodd&quot;&gt;&lt;/path&gt;&lt;/svg&gt;&lt;/span&gt;&lt;/button&gt;&lt;/span&gt;&lt;span data-state=&quot;closed&quot; class=&quot;&quot;&gt;&lt;button class=&quot;rounded-lg text-token-text-secondary hover:bg-token-main-surface-secondary&quot;&gt;&lt;span class=&quot;flex h-[30px] w-[30px] items-center justify-center&quot;&gt;&lt;svg class=&quot;icon-md-heavy&quot; viewBox=&quot;0 0 24 24&quot; fill=&quot;none&quot; height=&quot;24&quot; width=&quot;24&quot; xmlns=&quot;http://www.w3.org/2000/svg&quot;&gt;&lt;path clip-rule=&quot;evenodd&quot; d=&quot;M7 5a3 3 0 0 1 3-3h9a3 3 0 0 1 3 3v9a3 3 0 0 1-3 3h-2v2a3 3 0 0 1-3 3H5a3 3 0 0 1-3-3v-9a3 3 0 0 1 3-3h2zm2 2h5a3 3 0 0 1 3 3v5h2a1 1 0 0 0 1-1V5a1 1 0 0 0-1-1h-9a1 1 0 0 0-1 1zM5 9a1 1 0 0 0-1 1v9a1 1 0 0 0 1 1h9a1 1 0 0 0 1-1v-9a1 1 0 0 0-1-1z&quot; fill-rule=&quot;evenodd&quot; fill=&quot;currentColor&quot;&gt;&lt;/path&gt;&lt;/svg&gt;&lt;/span&gt;&lt;/button&gt;&lt;/span&gt;&lt;span data-state=&quot;closed&quot; class=&quot;&quot;&gt;&lt;button class=&quot;rounded-lg text-token-text-secondary hover:bg-token-main-surface-secondary&quot;&gt;&lt;span class=&quot;flex h-[30px] w-[30px] items-center justify-center&quot;&gt;&lt;svg class=&quot;icon-md-heavy&quot; viewBox=&quot;0 0 24 24&quot; fill=&quot;none&quot; height=&quot;24&quot; width=&quot;24&quot; xmlns=&quot;http://www.w3.org/2000/svg&quot;&gt;&lt;path d=&quot;M3.07 10.876C3.623 6.436 7.41 3 12 3a9.15 9.15 0 0 1 6.012 2.254V4a1 1 0 1 1 2 0v4a1 1 0 0 1-1 1H15a1 1 0 1 1 0-2h1.957A7.15 7.15 0 0 0 12 5a7 7 0 0 0-6.946 6.124 1 1 0 1 1-1.984-.248m16.992 1.132a1 1 0 0 1 .868 1.116C20.377 17.564 16.59 21 12 21a9.15 9.15 0 0 1-6-2.244V20a1 1 0 1 1-2 0v-4a1 1 0 0 1 1-1h4a1 1 0 1 1 0 2H7.043A7.15 7.15 0 0 0 12 19a7 7 0 0 0 6.946-6.124 1 1 0 0 1 1.116-.868&quot; fill=&quot;currentColor&quot;&gt;&lt;/path&gt;&lt;/svg&gt;&lt;/span&gt;&lt;/button&gt;&lt;/span&gt;&lt;div class=&quot;flex&quot;&gt;&lt;span data-state=&quot;closed&quot; class=&quot;&quot;&gt;&lt;button class=&quot;rounded-lg text-token-text-secondary hover:bg-token-main-surface-secondary&quot;&gt;&lt;span class=&quot;flex h-[30px] w-[30px] items-center justify-center&quot;&gt;&lt;svg class=&quot;icon-md-heavy&quot; xmlns=&quot;http://www.w3.org/2000/svg&quot; fill=&quot;none&quot; viewBox=&quot;0 0 24 24&quot; height=&quot;24&quot; width=&quot;24&quot;&gt;&lt;path fill=&quot;currentColor&quot; d=&quot;M11.8727 21.4961C11.6725 21.8466 11.2811 22.0423 10.8805 21.9922L10.4267 21.9355C7.95958 21.6271 6.36855 19.1665 7.09975 16.7901L7.65054 15H6.93226C4.29476 15 2.37923 12.4921 3.0732 9.94753L4.43684 4.94753C4.91145 3.20728 6.49209 2 8.29589 2H18.0045C19.6614 2 21.0045 3.34315 21.0045 5V12C21.0045 13.6569 19.6614 15 18.0045 15H16.0045C15.745 15 15.5054 15.1391 15.3766 15.3644L11.8727 21.4961ZM14.0045 4H8.29589C7.39399 4 6.60367 4.60364 6.36637 5.47376L5.00273 10.4738C4.65574 11.746 5.61351 13 6.93226 13H9.00451C9.32185 13 9.62036 13.1506 9.8089 13.4059C9.99743 13.6612 10.0536 13.9908 9.96028 14.2941L9.01131 17.3782C8.6661 18.5002 9.35608 19.6596 10.4726 19.9153L13.6401 14.3721C13.9523 13.8258 14.4376 13.4141 15.0045 13.1902V5C15.0045 4.44772 14.5568 4 14.0045 4ZM17.0045 13V5C17.0045 4.64937 16.9444 4.31278 16.8338 4H18.0045C18.5568 4 19.0045 4.44772 19.0045 5V12C19.0045 12.5523 18.5568 13 18.0045 13H17.0045Z&quot; clip-rule=&quot;evenodd&quot; fill-rule=&quot;evenodd&quot;&gt;&lt;/path&gt;&lt;/svg&gt;&lt;/span&gt;&lt;/button&gt;&lt;/span&gt;&lt;/div&gt;&lt;span data-state=&quot;closed&quot; class=&quot;&quot;&gt;&lt;button class=&quot;cursor-pointer rounded-md px-1 text-token-text-secondary h-[30px] hover:bg-token-main-surface-secondary&quot; data-state=&quot;closed&quot; aria-expanded=&quot;false&quot; aria-haspopup=&quot;menu&quot; id=&quot;radix-:rlp:&quot; type=&quot;button&quot;&gt;&lt;div class=&quot;flex items-center pb-0.5 juice:pb-0&quot;&gt;&lt;div class=&quot;[&amp;amp;_svg]:h-full [&amp;amp;_svg]:w-full icon-md h-4 w-4&quot;&gt;&lt;svg viewBox=&quot;0 0 24 24&quot; fill=&quot;none&quot; height=&quot;24&quot; width=&quot;24&quot; xmlns=&quot;http://www.w3.org/2000/svg&quot;&gt;&lt;path d=&quot;M19.898.855a.4.4 0 0 0-.795 0c-.123 1.064-.44 1.802-.943 2.305-.503.503-1.241.82-2.306.943a.4.4 0 0 0 .001.794c1.047.119 1.801.436 2.317.942.512.504.836 1.241.93 2.296a.4.4 0 0 0 .796 0c.09-1.038.413-1.792.93-2.308.515-.516 1.269-.839 2.306-.928a.4.4 0 0 0 .001-.797c-1.055-.094-1.792-.418-2.296-.93-.506-.516-.823-1.27-.941-2.317Z&quot; fill=&quot;currentColor&quot;&gt;&lt;/path&gt;&lt;path d=&quot;M12.001 1.5a1 1 0 0 1 .993.887c.313 2.77 1.153 4.775 2.5 6.146 1.34 1.366 3.3 2.223 6.095 2.47a1 1 0 0 1-.003 1.993c-2.747.238-4.75 1.094-6.123 2.467-1.373 1.374-2.229 3.376-2.467 6.123a1 1 0 0 1-1.992.003c-.248-2.795-1.105-4.754-2.47-6.095-1.372-1.347-3.376-2.187-6.147-2.5a1 1 0 0 1-.002-1.987c2.818-.325 4.779-1.165 6.118-2.504 1.339-1.34 2.179-3.3 2.504-6.118A1 1 0 0 1 12 1.5ZM6.725 11.998c1.234.503 2.309 1.184 3.21 2.069.877.861 1.56 1.888 2.063 3.076.5-1.187 1.18-2.223 2.051-3.094.871-.87 1.907-1.55 3.094-2.05-1.188-.503-2.215-1.187-3.076-2.064-.885-.901-1.566-1.976-2.069-3.21-.505 1.235-1.19 2.3-2.081 3.192-.891.89-1.957 1.576-3.192 2.082Z&quot; fill=&quot;currentColor&quot;&gt;&lt;/path&gt;&lt;/svg&gt;&lt;/div&gt;&lt;span class=&quot;line-clamp-1 text-sm&quot;&gt;&lt;/span&gt;&lt;/div&gt;&lt;/button&gt;&lt;/span&gt;&lt;/div&gt;&lt;/div&gt;&lt;/div&gt;" style="text;html=1;strokeColor=none;fillColor=none;align=center;verticalAlign=middle;whiteSpace=wrap;rounded=0;fontSize=25;" vertex="1" parent="1">
                    <mxGeometry x="-5260" y="410" width="900" height="30" as="geometry"/>
                </mxCell>
            </root>
        </mxGraphModel>
    </diagram>
</mxfile>